<svg version="1.2" xmlns="http://www.w3.org/2000/svg" viewBox="0 0 1300 300" width="1300" height="300">
	<title>logo_light-svg</title>
	<style>
		.s0 { fill: #000000 } 
	</style>
	<g id="Layer">
		<path id="Layer" class="s0" d="m65.3 145.6v101.2h20.4 20.4v-101.2-101.2h-20.4-20.4z"/>
		<path id="Layer" class="s0" d="m147.4 46.5l-2.1 2.1v13.6c0 13.2 0 13.5 2 15.4 1.6 1.7 2.7 2 6.6 2 5.6 0 9.9 1.9 10.9 5 2 5.8-4.4 15.4-13.6 19.9l-5.1 2.5v7.2 7l2.3-0.5c13.7-3.3 24.8-11.5 29.8-22.3 4.4-9.4 5-13.6 5.1-32.6v-17.6l-2.2-1.9c-2.3-1.8-2.6-1.9-16.9-1.9h-14.6z"/>
		<path id="Layer" class="s0" d="m586.7 126.6c-0.4 86.6-0.1 82.1-5.2 88.1-3.8 4.4-8.5 6.1-17.5 6.1-5.9 0-7.9-0.3-11-1.9-7.6-3.7-10.3-9.3-11.9-24.6l-1-8.9-18.3 8.9-18.3 8.9 0.5 4.4c2.6 20.1 11.2 33.5 26.1 40.6 9.7 4.7 18.2 6.6 31.5 7.2 18.9 0.8 32.3-2.2 43.2-9.5 10.1-6.8 16.6-16.4 20.6-30.7l1.8-6.4 0.2-80.6 0.3-80.6h-20.4-20.4z"/>
		<path id="Layer" class="s0" d="m279.4 94.5c-10.8 2.6-21.1 9.5-27.7 18.6l-3.6 5-0.2-10.9-0.3-10.8h-19.9-20v75.2 75.2h21.2 21.2v-49.5c0-47.2 0.1-49.8 1.6-54.7 3.9-12.6 16.1-18.8 31.5-15.8 9.9 1.8 15.4 7.4 17.2 17.1 0.6 3.1 0.9 22.3 0.9 53.9v49h21.2 21.2v-49.1c0-46.1 0.1-49.5 1.5-54 1.4-4.7 4.4-9.5 7.3-11.9 5.6-4.8 17.7-7 25.8-4.7 5.2 1.5 10.2 5.5 12.5 10 3 6 3.3 10 3.3 60.5v49.2h21.2 21.2l-0.3-57.4c-0.2-62.6-0.1-60.4-4.9-70.3-6.2-12.5-18.5-21.4-34.2-24.7-7.4-1.6-23-1.5-29 0-9.7 2.5-18.7 8.6-26 17.6l-3.6 4.4-1.5-2.2c-0.9-1.2-4.3-4.9-7.6-8.3-9.9-9.7-18.2-12.7-35.3-12.6-5.7 0-12 0.5-14.7 1.2z"/>
		<path id="Layer" fill-rule="evenodd" class="s0" d="m746.2 97.6c32.3 5.6 53.8 29.2 58.2 63.8 3.4 27.6-3.5 54.4-18.2 70.2-12.4 13.4-26.8 20.3-46.8 22.6-32.5 3.5-61.4-11.6-74.6-38.9-8.9-18.4-10.9-44-5.1-66.5 6.9-26.9 27.7-46.2 55.3-51.2 7.9-1.4 23-1.4 31.2 0zm-31.1 35.6c-12.6 6.2-19 20.6-19 42.4 0 25.8 9.1 41 26.5 44.7 16 3.4 30.7-3 37.2-16.2 4.3-8.7 5.6-15.6 5.6-28.9 0-13.3-1.3-20.2-5.5-28.8-3.4-6.8-10.2-12.8-17-14.7-10.6-3.1-19.5-2.6-27.8 1.5z"/>
		<path id="Layer" class="s0" d="m868.3 97c-15.4 2.4-24.9 6.7-33.1 14.9-9.8 9.9-13.6 20.3-13.1 35.7 0.4 10.6 1.9 15.5 6.9 22 8.1 10.6 16.7 14.4 54.5 23.4 15.2 3.6 22.3 6.4 25.7 10.4 2.3 2.5 2.5 3.3 2.2 6.7-0.5 5.1-3.5 8.8-9.1 11.6-9.1 4.4-28.8 3.3-37.3-2-5.6-3.5-9.5-9.7-9.5-15v-1.9h-19.5-19.6v3.8c0 5.2 2 13 4.4 18 8.8 17.4 26.4 26.9 54.7 29.5 32 2.9 59.5-8 69.3-27.5 3.1-6.1 5.1-15.2 5.1-22.9 0-12.3-3.1-20.2-10.8-27.8-8-7.8-20-12.5-49.2-19.1-20.3-4.6-27.5-7.7-30-12.6-1.6-3-1.2-8 1.1-10.9 3.9-5.5 15.7-8.3 27.2-6.6 11 1.6 16.6 6.2 18.7 15.1l1 4.2h19.2 19l-0.6-5.4c-1.3-12.3-4.9-20.7-12-27.8-8.1-8.3-18.3-12.8-34.3-15.2-7.4-1-25.7-1.5-30.9-0.6z"/>
		<path id="Layer" class="s0" d="m1007 97.6c-7.7 1.4-10.8 2.5-18 6.2-18.2 9.3-28.3 32-23.5 52.5 1.8 7.2 4.7 12.3 10.4 17.5 8.7 8.1 16.4 11.2 44.8 17.7 7.9 1.9 16.6 4.1 19.3 5 14.8 4.8 18.7 13.2 10 21.6-4.7 4.5-10.4 6.3-20.3 6.3-8.8 0-14.3-1-20.3-4-6.7-3.3-10.7-8.9-10.7-14.8v-2.8h-20.1-20l0.5 5c1.9 17.9 10.6 30.2 27 38.1 10.1 4.9 18.4 7 32.2 8.2 39.4 3.5 68.3-12.4 73.6-40.3 3-15.8-0.2-28-9.4-37.2-7.9-7.7-18.1-12.3-39-17.3-4.6-1.1-13-3.1-18.6-4.4-11.9-2.9-18-5.5-21.1-9.1-1.8-2.2-2-3.1-1.7-6.8 0.3-3.5 0.9-4.8 3.1-7.1 6.3-6.5 25.8-7.7 36.1-2.1 4.4 2.4 7.2 6.3 8.7 12.4l0.9 3.8h18.7 18.7v-4.2c0-2.3-0.6-6.5-1.2-9.3-5.8-24.2-27.4-36.3-64.4-36-5.5 0-12.5 0.5-15.7 1.1z"/>
		<path id="Layer" fill-rule="evenodd" class="s0" d="m1168.3 96.8c13.3 0.3 20.8 1.9 29.7 6.5 23.3 11.7 34.7 33.9 36.4 71.3l0.5 11.4h-49.6c-27.3 0-49.7 0.2-50 0.4-0.6 0.6 1.5 11.6 3.2 16.6 3.2 8.9 8.6 14.5 17.4 17.9 3 1.1 6.1 1.5 12.4 1.5 7.3 0 8.9-0.2 12.9-2.1 5.1-2.4 9.8-6.9 11.2-10.8l1-2.7h39.6l-1.5 4.5c-3.8 10.7-8.8 18.6-16.8 26.1-13.8 13.1-33.3 19-55.5 16.7-19.2-1.9-30.6-6.9-41.7-18-6.1-6.2-7.9-8.5-11.1-14.9-6.7-13.8-9.3-27-9.3-47.7 0-14.9 1.1-23.5 4.2-32.7 8.7-25.4 25.9-39.5 53-43.9 1.3-0.2 7.6-0.3 14-0.1zm-17.7 35.4c-6.2 3.9-10.6 10.6-13 19.9-2.4 9.3-5.6 8.3 27.9 8.3h29.2v-2.2c0-3.4-2.1-10.4-4.5-15.2-2.7-5.2-7.1-9.3-12.8-12-7.8-3.6-20-3-26.8 1.2z"/>
	</g>
</svg>